<?xml version="1.0" standalone="no"?>
<!DOCTYPE svg PUBLIC "-//W3C//DTD SVG 20010904//EN"
 "http://www.w3.org/TR/2001/REC-SVG-20010904/DTD/svg10.dtd">
<svg version="1.0" xmlns="http://www.w3.org/2000/svg"
 width="512.000000pt" height="512.000000pt" viewBox="0 0 512.000000 512.000000"
 preserveAspectRatio="xMidYMid meet">
<metadata>
Created by potrace 1.14, written by Peter Selinger 2001-2017
</metadata>
<g transform="translate(0.000000,512.000000) scale(0.100000,-0.100000)"
fill="#000000" stroke="none">
<path d="M2495 4633 c-43 -11 -104 -59 -136 -106 l-34 -50 0 -236 c0 -228 1
-237 23 -273 62 -99 159 -143 267 -119 67 15 125 60 157 121 22 42 23 58 26
248 2 159 0 214 -12 255 -17 57 -66 116 -119 142 -33 17 -137 28 -172 18z"/>
<path d="M3405 3867 c-78 -31 -129 -83 -153 -156 -19 -54 -16 -416 4 -473 31
-93 119 -153 224 -153 73 0 119 18 168 66 63 62 67 81 67 329 0 196 -2 230
-18 261 -24 49 -74 99 -117 117 -47 19 -138 24 -175 9z"/>
<path d="M1575 3833 c-35 -8 -110 -64 -132 -98 -43 -65 -44 -85 -41 -635 3
-488 4 -528 22 -562 89 -180 343 -181 432 0 18 35 19 71 19 588 l0 550 -29 44
c-37 56 -72 86 -121 103 -41 14 -114 19 -150 10z"/>
<path d="M2491 3508 c-65 -18 -110 -56 -144 -121 l-22 -42 0 -785 c0 -869 -4
-817 65 -887 116 -118 312 -85 387 66 17 34 18 83 18 821 0 745 -1 787 -19
822 -52 106 -172 159 -285 126z"/>
<path d="M645 2948 c-56 -21 -112 -69 -136 -116 -23 -45 -24 -54 -24 -272 0
-254 3 -269 74 -333 53 -48 70 -55 134 -63 94 -11 172 26 228 109 l34 50 3
208 c4 247 -5 294 -65 353 -21 20 -52 43 -68 52 -38 20 -141 27 -180 12z"/>
<path d="M4328 2950 c-50 -15 -114 -70 -139 -118 -23 -45 -24 -54 -24 -272 0
-252 3 -264 71 -333 38 -37 110 -67 164 -67 53 0 126 30 163 66 69 70 72 82
72 334 0 252 -3 267 -72 333 -58 57 -156 81 -235 57z"/>
<path d="M3394 2664 c-48 -17 -105 -70 -131 -123 -17 -33 -18 -74 -18 -581 0
-504 1 -548 18 -581 90 -182 344 -182 434 0 17 33 18 74 18 581 0 507 -1 548
-18 581 -56 114 -184 165 -303 123z"/>
<path d="M1565 1987 c-54 -22 -90 -48 -116 -85 -46 -63 -51 -100 -47 -322 3
-175 6 -210 22 -242 39 -81 117 -131 204 -134 98 -4 163 31 220 119 27 42 27
43 30 255 3 173 1 221 -12 260 -19 55 -76 118 -126 140 -47 20 -138 24 -175 9z"/>
<path d="M2473 1264 c-52 -19 -125 -97 -141 -152 -18 -60 -16 -405 3 -469 27
-92 127 -163 231 -163 80 0 175 63 212 140 25 52 25 468 0 520 -21 43 -70 94
-111 116 -45 23 -143 27 -194 8z"/>
</g>
</svg>
